<svg width="25" height="32" fill="none" xmlns="http://www.w3.org/2000/svg"><path d="m21.874 22.874-5.095-2.547c-.48-.24-.779-.724-.779-1.261v-1.804a9.2 9.2 0 0 0 .384-.507c.66-.933 1.19-1.972 1.575-3.093a2.116 2.116 0 0 0 1.241-1.929V9.6c0-.514-.192-1.011-.533-1.4V5.363c.03-.293.147-2.04-1.116-3.48C16.456.633 14.678 0 12.267 0c-2.412 0-4.19.634-5.285 1.883-1.263 1.44-1.145 3.187-1.115 3.48V8.2a2.127 2.127 0 0 0-.534 1.4v2.133c0 .65.295 1.255.799 1.659.488 1.934 1.51 3.392 1.868 3.86v1.764c0 .516-.282.99-.734 1.237L2.508 22.85A4.81 4.81 0 0 0 0 27.073V28.8C0 31.331 8.024 32 12.267 32c4.242 0 12.266-.669 12.266-3.2v-1.623a4.786 4.786 0 0 0-2.659-4.303z" fill="#fff"/></svg>