<svg width="698" height="389" fill="none" xmlns="http://www.w3.org/2000/svg"><g clip-rule="evenodd" stroke="#E4E4E4"><path d="M356.861 356.175c75.703 23.693 153.543 63.212 233.235-8.97 79.693-72.182 129.794-135.414 97.44-217.227-32.354-81.814-164.422-30.855-202.794-103.977-38.373-73.122 45.941-139.485 9.591-204.563-36.349-65.078-64.299-106.787-181.115-65.409C196.402-202.592 207.173-97.307 118.34-35.653 29.507 26.001-66.604 118.3 65.294 282.994c131.897 164.694 215.865 49.487 291.567 73.181z"/><path d="M347.395 318.251c61.583 19.24 124.905 51.33 189.734-7.283 64.828-58.614 105.585-109.959 79.266-176.393-26.32-66.434-133.755-25.055-164.971-84.43-31.216-59.377 37.372-113.266 7.802-166.11-29.569-52.845-52.306-86.713-147.334-53.113C216.864-135.478 225.625-49.984 153.361.08 81.097 50.144 2.911 125.092 110.209 258.827c107.297 133.735 175.603 40.184 237.186 59.424z"/><path d="M329.688 293.083c49.962 15.698 101.334 41.882 153.929-5.943 52.594-47.825 85.66-89.72 64.307-143.926-21.353-54.206-108.514-20.443-133.838-68.89-25.325-48.448 30.319-92.418 6.33-135.536-23.99-43.117-42.436-70.752-119.531-43.336C223.79-77.133 230.898-7.375 172.271 33.474c-58.627 40.85-122.058 102.003-35.009 211.122 87.049 109.119 142.465 32.788 192.426 48.487z"/><path d="M311.184 262.316c40.295 12.596 81.728 33.603 124.147-4.768 42.419-38.371 69.087-71.984 51.865-115.475-17.221-43.491-87.518-16.402-107.943-55.273-20.425-38.87 24.453-74.148 5.105-108.743s-34.225-56.767-96.404-34.77c-62.179 21.996-56.446 77.965-103.73 110.739-47.284 32.774-98.442 81.839-28.236 169.388 70.207 87.55 114.901 26.307 155.196 38.902z"/><path d="M306.417 242.454c32.91 10.295 66.749 27.467 101.393-3.897 34.643-31.365 56.424-58.84 42.358-94.389-14.065-35.549-71.477-13.407-88.158-45.179-16.682-31.773 19.971-60.609 4.169-88.886-15.802-28.277-27.952-46.4-78.734-28.42-50.782 17.979-46.1 63.727-84.718 90.516-38.617 26.79-80.398 66.895-23.06 138.457 57.339 71.562 93.841 21.503 126.75 31.798z"/><path d="M297.275 228.094c26.718 8.36 54.191 22.305 82.318-3.165 28.127-25.47 45.81-47.781 34.39-76.649-11.419-28.868-58.031-10.887-71.574-36.688-13.544-25.8 16.214-49.218 3.385-72.18-12.829-22.963-22.694-37.68-63.923-23.08-41.229 14.6-37.428 51.75-68.78 73.505-31.353 21.755-65.275 54.323-18.723 112.435 46.553 58.112 76.188 17.462 102.907 25.822z"/></g></svg>