<svg width="699" height="651" fill="none" xmlns="http://www.w3.org/2000/svg"><g clip-rule="evenodd" stroke="#96A9C6"><path d="M341.858 33.325c-75.703-23.693-153.544-63.213-233.236 8.97-79.692 72.182-129.794 135.414-97.44 217.227 32.355 81.814 164.422 30.855 202.795 103.977 38.373 73.122-45.941 139.485-9.591 204.563 36.349 65.078 64.299 106.787 181.115 65.409 116.816-41.379 106.045-146.664 194.878-208.318 88.833-61.654 184.944-153.953 53.046-318.647S417.56 57.019 341.858 33.326z"/><path d="M351.324 71.249c-61.583-19.24-124.905-51.33-189.734 7.283-64.828 58.614-105.586 109.959-79.266 176.393 26.32 66.434 133.755 25.055 164.971 84.431 31.216 59.376-37.373 113.265-7.803 166.109 29.57 52.845 52.307 86.713 147.335 53.113 95.028-33.6 86.266-119.094 158.531-169.158 72.264-50.064 150.449-125.012 43.152-258.747C481.213-3.062 412.907 90.489 351.324 71.249z"/><path d="M369.031 96.417c-49.962-15.698-101.334-41.882-153.929 5.943-52.595 47.825-85.66 89.72-64.307 143.926 21.353 54.206 108.513 20.443 133.838 68.89 25.325 48.448-30.319 92.418-6.33 135.536 23.99 43.117 42.436 70.752 119.531 43.336 77.095-27.415 69.987-97.173 128.614-138.022 58.627-40.85 122.058-102.003 35.009-211.122-87.049-109.12-142.465-32.788-192.426-48.487z"/><path d="M387.534 127.184c-40.295-12.596-81.728-33.603-124.146 4.768-42.419 38.371-69.087 71.984-51.866 115.475 17.222 43.491 87.519 16.402 107.944 55.273 20.425 38.87-24.453 74.148-5.105 108.743s34.225 56.767 96.404 34.77c62.179-21.996 56.446-77.965 103.73-110.739 47.284-32.774 98.442-81.839 28.235-169.388-70.206-87.55-114.901-26.307-155.196-38.902z"/><path d="M392.301 147.046c-32.909-10.295-66.748-27.467-101.392 3.897-34.644 31.365-56.424 58.84-42.359 94.389 14.065 35.549 71.478 13.407 88.159 45.179 16.682 31.772-19.971 60.609-4.169 88.886 15.801 28.277 27.952 46.4 78.734 28.421 50.782-17.98 46.1-63.728 84.717-90.517 38.618-26.79 80.399-66.895 23.061-138.457-57.339-71.562-93.841-21.503-126.751-31.798z"/><path d="M401.444 161.406c-26.718-8.36-54.191-22.305-82.318 3.165-28.127 25.47-45.81 47.781-34.391 76.649 11.42 28.868 58.032 10.887 71.575 36.688 13.543 25.801-16.214 49.217-3.385 72.18 12.829 22.963 22.694 37.68 63.923 23.08 41.229-14.601 37.427-51.751 68.78-73.505 31.353-21.755 65.275-54.323 18.722-112.435-46.552-58.112-76.187-17.462-102.906-25.822z"/></g></svg>