<svg width="569" height="651" fill="none" xmlns="http://www.w3.org/2000/svg"><g clip-rule="evenodd" stroke="#9E96C6"><path d="M211.539 33.325C135.836 9.632 57.996-29.888-21.696 42.295c-79.693 72.182-129.794 135.414-97.44 217.227 32.354 81.814 164.422 30.855 202.794 103.977 38.373 73.122-45.94 139.485-9.591 204.563 36.35 65.078 64.299 106.787 181.115 65.409 116.816-41.379 106.045-146.664 194.878-208.318 88.833-61.654 184.944-153.953 53.046-318.647-131.897-164.694-215.865-49.487-291.567-73.18z"/><path d="M221.005 71.249C159.422 52.009 96.1 19.919 31.271 78.532c-64.828 58.614-105.585 109.959-79.266 176.393 26.32 66.434 133.755 25.055 164.971 84.431 31.216 59.376-37.372 113.265-7.802 166.109 29.569 52.845 52.306 86.713 147.334 53.113 95.028-33.6 86.267-119.094 158.531-169.158 72.264-50.064 150.449-125.012 43.152-258.747C350.894-3.062 282.588 90.489 221.005 71.249z"/><path d="M238.712 96.417C188.75 80.72 137.378 54.535 84.783 102.36 32.19 150.185-.877 192.08 20.476 246.286c21.353 54.206 108.514 20.443 133.838 68.89 25.325 48.448-30.319 92.418-6.33 135.536 23.99 43.117 42.436 70.752 119.531 43.336 77.095-27.415 69.987-97.173 128.614-138.022 58.627-40.85 122.058-102.003 35.009-211.122-87.049-109.12-142.465-32.788-192.426-48.487z"/><path d="M257.216 127.184c-40.295-12.596-81.728-33.603-124.147 4.768-42.419 38.371-69.087 71.984-51.865 115.475 17.221 43.491 87.518 16.402 107.943 55.273 20.425 38.87-24.453 74.148-5.105 108.743s34.225 56.767 96.404 34.77c62.179-21.996 56.446-77.965 103.73-110.739 47.284-32.774 98.442-81.839 28.236-169.388-70.207-87.55-114.901-26.307-155.196-38.902z"/><path d="M261.983 147.046c-32.91-10.295-66.749-27.467-101.392 3.897-34.644 31.365-56.425 58.84-42.359 94.389 14.065 35.549 71.477 13.407 88.158 45.179 16.682 31.772-19.971 60.609-4.169 88.886 15.802 28.277 27.952 46.4 78.734 28.421 50.782-17.98 46.1-63.728 84.718-90.517 38.617-26.79 80.399-66.895 23.06-138.457s-93.841-21.503-126.75-31.798z"/><path d="M271.125 161.406c-26.718-8.36-54.191-22.305-82.318 3.165-28.126 25.47-45.809 47.781-34.39 76.649 11.419 28.868 58.031 10.887 71.574 36.688 13.544 25.801-16.214 49.217-3.385 72.18 12.829 22.963 22.694 37.68 63.923 23.08 41.229-14.601 37.428-51.751 68.78-73.505 31.353-21.755 65.275-54.323 18.723-112.435-46.553-58.112-76.188-17.462-102.907-25.822z"/></g></svg>